# xmcd CD database file
#
# Track frame offsets:
#	150
#	16912
#	34047
#	44873
#	58483
#	71718
#	83668
#	94361
#	111351
#	127956
#	143664
#	156973
#	176431
#
# Disc length: 2476 seconds
#
# Revision: 0
# Processed by: cddbd v1.5.1PL0 Copyright (c) Steve Scherf et al.
# Submitted via: Feurio! 1.67 - http://www.feurio.com
#
DISCID=b809aa0d
DTITLE=Ramona and Hannes - Weites Land
DYEAR=1900
DGENRE=Country
TTITLE0=Weites Land
TTITLE1=Stars in your eyes
TTITLE2=Traumschiff
TTITLE3=Sleepy little cowboys
TTITLE4=Darf's auch ein kleiner Feigling sein
TTITLE5=Is that a sign I'm in love
TTITLE6=Latschencowboy
TTITLE7=Sterne
TTITLE8=Antworten
TTITLE9=Ein kleines Lied
TTITLE10=Der Clown
TTITLE11=Schwarze Rosen
TTITLE12=Fliegen mit dem Wind
EXTD=
EXTT0=
EXTT1=
EXTT2=
EXTT3=
EXTT4=
EXTT5=
EXTT6=
EXTT7=
EXTT8=
EXTT9=
EXTT10=
EXTT11=
EXTT12=
PLAYORDER=
